{"title":"Deadtime Stories 2009 XViD DVDRip DTRG","uid":6537722,"size":743573995,"categoryP":"video","categoryS":"movies","magnet":"?xt=urn:btih:f707067f50498e480f5ed2c5d0dd217b9d2baa60&amp;dn=Deadtime+Stories+2009+XViD+DVDRip+DTRG&amp;tr=udp%3A%2F%2Ftracker.openbittorrent.com%3A80&amp;tr=udp%3A%2F%2Fopen.demonii.com%3A1337&amp;tr=udp%3A%2F%2Ftracker.coppersurfer.tk%3A6969&amp;tr=udp%3A%2F%2Fexodus.desync.com%3A6969","seeders":1,"leechers":3,"uploader":"SAFCukO09","files":3,"time":1310568290,"description":"Writing library : VirtualDub build 32842/release\n\nVideo\nID : 0\nFormat : MPEG-4 Visual\nFormat profile : Advanced Simple@L5\nFormat settings, BVOP : 2\nFormat settings, QPel : No\nFormat settings, GMC : No warppoints\nFormat settings, Matrix : Default (H.263)\nMuxing mode : Packed bitstream\nCodec ID : XVID\nCodec ID/Hint : XviD\nDuration : 1h 16mn\nBit rate : 970 Kbps\nWidth : 720 pixels\nHeight : 400 pixels\nDisplay aspect ratio : 16:9\nFrame rate : 23.976 fps\nColor space : YUV\nChroma subsampling : 4:2:0\nBit depth : 8 bits\nScan type : Progressive\nCompression mode : Lossy\nBits/(Pixel*Frame) : 0.140\nStream size : 529 MiB (75%)\nWriting library : XviD 64\n\nAudio\nID : 1\nFormat : AC-3\nFormat/Info : Audio Coding 3\nMode extension : CM (complete main)\nCodec ID : 2000\nDuration : 1h 16mn\nBit rate mode : Constant\nBit rate : 320 Kbps\nChannel(s) : 6 channels\nChannel positions : Front: L C R, Side: L R, LFE\nSampling rate : 48.0 KHz\nBit depth : 16 bits\nCompression mode : Lossy\nStream size : 175 MiB (25%)\nAlignment : Aligned on interleaves\nInterleave, duration : 42 ms (1.00 video frame)\nInterleave, preload duration : 512 ms\n\n\n\n\n\n &lt;a href=&quot;\nhttp://www.imdb.com/title/tt1156300/&quot; rel=&quot;nofollow&quot; target=&quot;_NEW&quot;&gt;\nhttp://www.imdb.com/title/tt1156300/&lt;/a&gt;\n\n\n\n\n\n\n\n\n\nUsers: (37 votes) write review | Critics: 3 reviews\n\n\nIn this anthology of horror tales two hikers are trapped in a cave-in, a jilted teen lover turns bad, and man is murderously desperate to help his ailing wife.\n\nDirectors: Michael Fischa, Jeff Monahan\n\nSource Used\n\n\n\nDeadtime Stories V1 2009 NTSC DVDR-STOCK ..Thanks\n\n\n\n\nEnjoy\n\n\n\n\n\nGreetz to IMAGiNE,Flawl3ss,DiLLoN,BDK,NOiR,TOXiC,THC,Ez,Rx,Boobyblue,TaRiQ786,BHRG\n\n","torrent":{"xt":"urn:btih:f707067f50498e480f5ed2c5d0dd217b9d2baa60","amp;dn":"Deadtime+Stories+2009+XViD+DVDRip+DTRG","amp;tr":["udp%3A%2F%2Ftracker.openbittorrent.com%3A80","udp%3A%2F%2Fopen.demonii.com%3A1337","udp%3A%2F%2Ftracker.coppersurfer.tk%3A6969","udp%3A%2F%2Fexodus.desync.com%3A6969"],"infoHash":"f707067f50498e480f5ed2c5d0dd217b9d2baa60","infoHashBuffer":{"type":"Buffer","data":[247,7,6,127,80,73,142,72,15,94,210,197,208,221,33,123,157,43,170,96]},"announce":[],"urlList":[]}}